<svg viewBox="0 0 100 100" fill="none" xmlns="http://www.w3.org/2000/svg">
  <defs>
    <filter id="dropShadow" x="-20%" y="-20%" width="140%" height="140%">
      <feGaussianBlur in="SourceAlpha" stdDeviation="1.5" />
      <feOffset dx="1" dy="1" result="offsetblur" />
      <feFlood floodColor="#000000" floodOpacity="0.2" />
      <feComposite in2="offsetblur" operator="in" />
      <feMerge>
        <feMergeNode />
        <feMergeNode in="SourceGraphic" />
      </feMerge>
    </filter>
  </defs>
  <g filter="url(#dropShadow)">
    <path d="M25 35 Q15 55 25 85 Q35 95 50 95 Q65 95 75 85 Q85 55 75 35 Q65 20 50 20 Q35 20 25 35 Z" fill="#A1887F" stroke="#5D4037" strokeWidth="1"/>
    <path d="M30 40 Q35 45 30 50 M70 40 Q65 45 70 50 M50 85 Q55 90 45 90" stroke="#6D4C41" strokeWidth="0.5" opacity="0.5"/>
    <path d="M35 30 Q50 35 65 30" stroke="#3E2723" strokeWidth="3" fill="none"/>
    <path d="M32 30 Q25 20 20 15 L25 25" stroke="#A1887F" strokeWidth="4" fill="none"/>
    <path d="M68 30 Q75 20 80 15 L75 25" stroke="#A1887F" strokeWidth="4" fill="none"/>
    <circle cx="50" cy="60" r="12" fill="#3E2723" />
    <path d="M50 54 Q56 60 50 66" stroke="#8D6E63" strokeWidth="2" strokeLinecap="round"/>
  </g>
</svg>