<svg viewBox="0 0 100 100" fill="none" xmlns="http://www.w3.org/2000/svg">
  <defs>
    <filter id="dropShadow" x="-20%" y="-20%" width="140%" height="140%">
      <feGaussianBlur in="SourceAlpha" stdDeviation="1.5" />
      <feOffset dx="1" dy="1" result="offsetblur" />
      <feFlood floodColor="#000000" floodOpacity="0.2" />
      <feComposite in2="offsetblur" operator="in" />
      <feMerge>
        <feMergeNode />
        <feMergeNode in="SourceGraphic" />
      </feMerge>
    </filter>
    <linearGradient id="glassGradient" x1="0" y1="0" x2="1" y2="0">
      <stop offset="0%" stopColor="rgba(255,255,255,0.4)" />
      <stop offset="50%" stopColor="rgba(255,255,255,0.1)" />
      <stop offset="100%" stopColor="rgba(255,255,255,0.4)" />
    </linearGradient>
  </defs>
  <g filter="url(#dropShadow)">
    <path d="M38 90 L38 40 Q38 30 42 20 L42 15 L58 15 L58 20 Q62 30 62 40 L62 90 Q62 95 50 95 Q38 95 38 90 Z" fill="#F5F5F5" stroke="#CFD8DC" strokeWidth="1"/>
    <path d="M39 88 L39 45 Q50 50 61 45 L61 88 Q61 93 50 93 Q39 93 39 88 Z" fill="#FFFFFF" />
    <rect x="42" y="55" width="16" height="20" fill="#E1F5FE" rx="2" stroke="#B3E5FC" strokeWidth="0.5"/>
    <path d="M45 60 L55 60 M45 65 L55 65 M45 70 L50 70" stroke="#0288D1" strokeWidth="1"/>
    <rect x="41" y="12" width="18" height="6" fill="#0288D1" rx="1" />
    <path d="M58 25 L58 85" stroke="url(#glassGradient)" strokeWidth="4" strokeLinecap="round"/>
  </g>
</svg>