<svg viewBox="0 0 100 100" fill="none" xmlns="http://www.w3.org/2000/svg">
  <defs>
    <filter id="dropShadow" x="-20%" y="-20%" width="140%" height="140%">
      <feGaussianBlur in="SourceAlpha" stdDeviation="1.5" />
      <feOffset dx="1" dy="1" result="offsetblur" />
      <feFlood floodColor="#000000" floodOpacity="0.2" />
      <feComposite in2="offsetblur" operator="in" />
      <feMerge>
        <feMergeNode />
        <feMergeNode in="SourceGraphic" />
      </feMerge>
    </filter>
    <linearGradient id="goldGradient" x1="0" y1="0" x2="1" y2="1">
      <stop offset="0%" stopColor="#FCD34D" />
      <stop offset="50%" stopColor="#F59E0B" />
      <stop offset="100%" stopColor="#D97706" />
    </linearGradient>
  </defs>
  <g filter="url(#dropShadow)">
     <path d="M35 90 L35 40 Q35 30 45 25 L45 20 L55 20 L55 25 Q65 30 65 40 L65 90 Z" fill="#FFECB3" stroke="#FFC107" strokeWidth="1"/>
     <path d="M36 89 L36 45 Q50 48 64 45 L64 89 Z" fill="#FFC107" fillOpacity="0.6"/>
     <rect x="40" y="50" width="20" height="25" fill="#263238" rx="2" />
     <circle cx="50" cy="62" r="6" fill="url(#goldGradient)" />
     <rect x="47" y="15" width="6" height="5" fill="#F5F5F5" stroke="#9E9E9E" strokeWidth="0.5"/>
     <path d="M50 15 L50 5" stroke="#9E9E9E" strokeWidth="2"/>
     <path d="M50 5 L35 10" stroke="#9E9E9E" strokeWidth="2" strokeLinecap="round"/>
     <circle cx="35" cy="10" r="2" fill="#F5F5F5" stroke="#9E9E9E" strokeWidth="0.5"/>
  </g>
</svg>