<svg xmlns="http://www.w3.org/2000/svg" viewBox="0 0 32 32">
  <rect width="32" height="32" rx="6" fill="#0f172a"/>
  <!-- Gear-like outer rim -->
  <path d="M16 4L17.5 7H14.5L16 4ZM24.5 7.5L25.5 10.5L22.5 11.5L21.5 8.5L24.5 7.5ZM28 16L25 17.5V14.5L28 16ZM24.5 24.5L21.5 23.5L22.5 20.5L25.5 21.5L24.5 24.5ZM16 28L14.5 25H17.5L16 28ZM7.5 24.5L6.5 21.5L9.5 20.5L10.5 23.5L7.5 24.5ZM4 16L7 14.5V17.5L4 16ZM7.5 7.5L10.5 8.5L9.5 11.5L6.5 10.5L7.5 7.5Z" fill="#94a3b8"/>
  <!-- Coffee Cup -->
  <path d="M10 12H20V18C20 20.7614 17.7614 23 15 23C12.2386 23 10 20.7614 10 18V12Z" fill="#f8fafc"/>
  <path d="M20 14H22C23.1046 14 24 14.8954 24 16C24 17.1046 23.1046 18 22 18H20" stroke="#f8fafc" stroke-width="2" fill="none"/>
  <path d="M10 11H20" stroke="#94a3b8" stroke-width="1"/>
</svg>
