<svg xmlns="http://www.w3.org/2000/svg" viewBox="0 0 32 32">
  <rect width="32" height="32" rx="6" fill="#1a1a1a"/>
  <!-- Crescent Moon -->
  <path d="M22 8C22 14.6274 16.6274 20 10 20C9.31046 20 8.63604 19.9419 7.98145 19.8306C9.69531 22.3789 12.5635 24 15.8235 24C20.8918 24 25 19.9249 25 14.9C25 12.1824 23.8213 9.74219 21.9443 8.04883C21.9814 8.03271 22 8 22 8Z" fill="#fbbf24"/>
  <!-- Coffee Bean -->
  <path d="M14 12C14 10.3431 15.3431 9 17 9C18.6569 9 20 10.3431 20 12V18C20 19.6569 18.6569 21 17 21C15.3431 21 14 19.6569 14 18V12Z" fill="#78350f" transform="rotate(-15 17 15)"/>
  <path d="M16 11C16 11 17.5 14 17.5 15C17.5 16 16 19 16 19" stroke="#1a1a1a" stroke-width="1" fill="none" transform="rotate(-15 17 15)"/>
</svg>
